<mxfile host="drawio-plugin" modified="2022-12-01T03:45:38.282Z" agent="5.0 (Windows NT 6.2; Win64; x64) AppleWebKit/537.36 (KHTML, like Gecko) Chrome/89.0.4389.114 Safari/537.36" etag="dqNCj97oaomE-ztd9ME8" version="15.5.4" type="embed"><diagram id="23iRSUPoRavnBvh4doch" name="Page-1"><mxGraphModel dx="2092" dy="2593" grid="1" gridSize="10" guides="1" tooltips="1" connect="1" arrows="1" fold="1" page="1" pageScale="1" pageWidth="827" pageHeight="1169" math="0" shadow="0"><root><mxCell id="0"/><mxCell id="1" parent="0"/><mxCell id="6" value="" style="rounded=1;whiteSpace=wrap;html=1;fillColor=#f8cecc;strokeColor=#b85450;" vertex="1" parent="1"><mxGeometry x="480" y="159" width="700" height="1181" as="geometry"/></mxCell><mxCell id="7" value="&lt;b&gt;&lt;font style=&quot;font-size: 16px&quot;&gt;FilterTable&lt;/font&gt;&lt;/b&gt;" style="text;html=1;strokeColor=none;fillColor=none;align=center;verticalAlign=middle;whiteSpace=wrap;rounded=0;strokeWidth=1;" vertex="1" parent="1"><mxGeometry x="800" y="180" width="60" height="30" as="geometry"/></mxCell><mxCell id="8" value="" style="rounded=1;whiteSpace=wrap;html=1;fillColor=#fff2cc;strokeColor=#d6b656;" vertex="1" parent="1"><mxGeometry x="530" y="370" width="617.5" height="220" as="geometry"/></mxCell><mxCell id="9" value="" style="rounded=1;whiteSpace=wrap;html=1;fillColor=#d5e8d4;strokeColor=#82b366;" vertex="1" parent="1"><mxGeometry x="522.5" y="850" width="615" height="450" as="geometry"/></mxCell><mxCell id="10" value="&lt;b style=&quot;font-size: 16px;&quot;&gt;Table&lt;/b&gt;" style="text;html=1;strokeColor=none;fillColor=none;align=center;verticalAlign=middle;whiteSpace=wrap;rounded=0;fontSize=16;" vertex="1" parent="1"><mxGeometry x="800" y="860" width="60" height="30" as="geometry"/></mxCell><mxCell id="12" value="&lt;b&gt;state&lt;/b&gt;&lt;br&gt;searchState&lt;br&gt;tableListState&lt;br&gt;pageState" style="rounded=1;whiteSpace=wrap;html=1;" vertex="1" parent="1"><mxGeometry x="880" y="180" width="120" height="155" as="geometry"/></mxCell><mxCell id="13" value="&lt;b&gt;props&lt;/b&gt;" style="rounded=1;whiteSpace=wrap;html=1;" vertex="1" parent="1"><mxGeometry x="1010" y="180" width="120" height="155" as="geometry"/></mxCell><mxCell id="14" value="&lt;b style=&quot;font-size: 16px;&quot;&gt;Filter&lt;/b&gt;" style="text;html=1;strokeColor=none;fillColor=none;align=center;verticalAlign=middle;whiteSpace=wrap;rounded=0;fontSize=16;" vertex="1" parent="1"><mxGeometry x="800" y="380" width="60" height="30" as="geometry"/></mxCell><mxCell id="15" value="&lt;b&gt;state&lt;/b&gt;" style="rounded=1;whiteSpace=wrap;html=1;" vertex="1" parent="1"><mxGeometry x="870" y="410" width="120" height="155" as="geometry"/></mxCell><mxCell id="16" value="&lt;b&gt;props&lt;br&gt;&lt;/b&gt;searchStateOnChange" style="rounded=1;whiteSpace=wrap;html=1;" vertex="1" parent="1"><mxGeometry x="1000" y="410" width="130" height="160" as="geometry"/></mxCell><mxCell id="17" value="&lt;b&gt;state&lt;/b&gt;" style="rounded=1;whiteSpace=wrap;html=1;" vertex="1" parent="1"><mxGeometry x="830" y="970" width="120" height="155" as="geometry"/></mxCell><mxCell id="18" value="&lt;b&gt;props&lt;/b&gt;&lt;br&gt;tableListTableProps&lt;br&gt;pageProps&lt;br&gt;pageChangeOnChange" style="rounded=1;whiteSpace=wrap;html=1;" vertex="1" parent="1"><mxGeometry x="960" y="970" width="160" height="160" as="geometry"/></mxCell><mxCell id="30" value="" style="rounded=1;whiteSpace=wrap;html=1;fontSize=16;strokeWidth=1;fillColor=none;" vertex="1" parent="1"><mxGeometry x="435" y="-190" width="790" height="1530" as="geometry"/></mxCell><mxCell id="31" value="&lt;b&gt;&lt;font style=&quot;font-size: 16px&quot;&gt;content&lt;/font&gt;&lt;/b&gt;" style="text;html=1;strokeColor=none;fillColor=none;align=center;verticalAlign=middle;whiteSpace=wrap;rounded=0;fontSize=16;" vertex="1" parent="1"><mxGeometry x="500" y="-160" width="60" height="30" as="geometry"/></mxCell></root></mxGraphModel></diagram></mxfile>